# xmcd CD database file
#
# Track frame offsets:
#	150
#	20560
#	34332
#	49010
#	72157
#
# Disc length: 1143 seconds
#
# Revision: 0
# Processed by: cddbd v1.5.1PL0 Copyright (c) Steve Scherf et al.
# Submitted via: CDex 1.51
#
DISCID=3e047505
DTITLE=徳永憲 - オートマチック･ラブラブマシーン
DYEAR=1998
DGENRE=Rock
TTITLE0=オートマチック･ラブラブマシーン
TTITLE1=ブルーブルー
TTITLE2=コーラの秘密(demo)
TTITLE3=オートマチック･ラブラブマシーン(inst.)
TTITLE4=ブルーブルー(inst.)
EXTD=YEAR: 1998.10/21
EXTT0=
EXTT1=
EXTT2=
EXTT3=
EXTT4=
PLAYORDER=
